<svg width="700" height="652" viewBox="0 0 700 652" fill="none" xmlns="http://www.w3.org/2000/svg">
<path d="M-96.0076 520.369C-59.3054 445.835 -4.77182 401.181 149.493 377.109C294.235 354.524 364.717 272.195 391.795 220.426C456.986 95.7888 565.144 93.1614 613.815 85.7528" stroke="#007BC2" stroke-width="1.2"/>
<path d="M-105.457 505.913C-68.755 431.379 -14.2214 386.725 140.043 362.654C284.785 340.068 355.267 257.74 382.345 205.971C447.537 81.3333 555.694 78.7059 604.365 71.2973" stroke="#007BC2"/>
<path d="M-114.907 491.458C-78.2047 416.924 -23.6711 372.27 130.593 348.198C275.335 325.613 345.818 243.284 372.896 191.515C438.087 66.8779 546.245 64.2505 594.915 56.8419" stroke="#007BC2" stroke-width="0.8"/>
<path d="M-124.356 477.002C-87.6542 402.468 -33.1206 357.814 121.144 333.743C265.886 311.157 336.368 228.829 363.446 177.06C428.637 52.4224 536.795 49.795 585.466 42.3863" stroke="#007BC2" stroke-width="0.6"/>
<path d="M-133.806 462.547C-97.1039 388.013 -42.5703 343.359 111.694 319.287C256.436 296.702 326.919 214.373 353.996 162.604C419.188 37.9669 527.345 35.3395 576.016 27.9308" stroke="#007BC2" stroke-width="0.4"/>
<path d="M-143.256 448.091C-106.553 373.557 -52.0199 328.903 102.245 304.832C246.987 282.247 317.469 199.918 344.547 148.149C409.738 23.5114 517.896 20.884 566.567 13.4754" stroke="#007BC2" stroke-width="0.2"/>
<path d="M-156.256 434.865C-119.553 360.331 -65.0199 315.677 89.2446 291.605C233.987 269.02 304.469 186.691 331.547 134.922C396.738 10.2849 504.896 7.65751 553.567 0.248897" stroke="#007BC2" stroke-width="0.1"/>
<path d="M-86.558 534.824C-49.8558 460.29 4.67777 415.636 158.942 391.565C303.684 368.979 374.167 286.651 401.244 234.882C466.436 110.244 574.593 107.617 623.264 100.208" stroke="#007BC2" stroke-width="1.4"/>
<path d="M-77.1083 549.28C-40.4061 474.746 14.1275 430.092 168.392 406.02C313.134 383.435 383.616 301.106 410.694 249.337C475.885 124.7 584.043 122.072 632.714 114.664" stroke="#007BC2" stroke-width="1.6"/>
<path d="M-67.6587 563.735C-30.9565 489.201 23.5771 444.547 177.842 420.476C322.584 397.89 393.066 315.562 420.144 263.793C485.335 139.155 593.493 136.528 642.164 129.119" stroke="#007BC2" stroke-width="1.8"/>
<path d="M-58.2091 578.191C-21.5069 503.657 33.0266 459.003 187.291 434.931C332.033 412.346 402.516 330.017 429.593 278.248C494.785 153.611 602.942 150.983 651.613 143.575" stroke="#007BC2" stroke-width="2"/>
<path d="M-48.7594 592.646C-12.0572 518.112 42.4764 473.458 196.741 449.387C341.483 426.801 411.965 344.473 439.043 292.704C504.234 168.066 612.392 165.439 661.063 158.03" stroke="#007BC2" stroke-width="2.2"/>
<path d="M-39.3098 607.102C-2.60766 532.568 51.9259 487.913 206.19 463.842C350.932 441.257 421.415 358.928 448.493 307.159C513.684 182.522 621.842 179.894 670.512 172.486" stroke="#007BC2" stroke-width="2.4"/>
<path d="M-29.8603 621.557C6.84193 547.023 61.3755 502.369 215.64 478.298C360.382 455.712 430.864 373.384 457.942 321.615C523.133 196.977 631.291 194.35 679.962 186.941" stroke="#007BC2" stroke-width="2.6"/>
<path d="M-20.4105 636.013C16.2916 561.479 70.8252 516.824 225.09 492.753C369.832 470.168 440.314 387.839 467.392 336.07C532.583 211.433 640.741 208.805 689.412 201.397" stroke="#007BC2" stroke-width="2.8"/>
<path d="M-10.9611 650.468C25.7411 575.934 80.2747 531.28 234.539 507.209C379.281 484.623 449.764 402.295 476.841 350.525C542.033 225.888 650.19 223.261 698.861 215.852" stroke="#007BC2" stroke-width="3"/>
</svg>
