<svg width="25" height="25" viewBox="0 0 25 25" fill="none" xmlns="http://www.w3.org/2000/svg">
<g clip-path="url(#clip0_70_595)">
<path d="M12.5 25C19.4036 25 25 19.4036 25 12.5C25 5.59644 19.4036 0 12.5 0C5.59644 0 0 5.59644 0 12.5C0 19.4036 5.59644 25 12.5 25Z" fill="#8D8D8D"/>
<path fill-rule="evenodd" clip-rule="evenodd" d="M5.65831 12.3679L12.9481 9.22794C16.4195 7.78407 17.1408 7.53327 17.6109 7.52499C17.7143 7.52317 17.9455 7.54879 18.0953 7.67032C18.2218 7.77292 18.2565 7.91157 18.2732 8.00882C18.2899 8.10607 18.3106 8.32774 18.2941 8.50092C18.106 10.4774 17.292 15.274 16.8779 17.4878C16.7027 18.4245 16.3579 18.7386 16.0237 18.7693C15.2978 18.8361 14.7465 18.2896 14.0435 17.8287L11.2539 15.9549C10.0197 15.1416 10.8198 14.6946 11.5231 13.9641C11.7072 13.7729 14.9055 10.8638 14.9674 10.5999C14.9749 10.5669 14.9823 10.4439 14.9092 10.3789C14.8361 10.3139 14.7282 10.3364 14.6504 10.3538C14.5401 10.3789 12.7825 11.5405 9.37784 13.8388C8.87897 14.1814 8.42709 14.3483 8.02226 14.3396C7.57594 14.3299 6.71741 14.0872 6.07919 13.8797C5.29636 13.6253 4.67419 13.4907 4.72839 13.0586C4.75659 12.8335 5.06656 12.6033 5.65829 12.368L5.65831 12.3679Z" fill="white"/>
</g>
<defs>
<clipPath id="clip0_70_595">
<rect width="25" height="25" fill="white"/>
</clipPath>
</defs>
</svg>
