<svg width="25" height="25" viewBox="0 0 25 25" fill="none" xmlns="http://www.w3.org/2000/svg">
<g clip-path="url(#clip0_70_591)">
<path d="M12.5 24.6094C19.1878 24.6094 24.6094 19.1878 24.6094 12.5C24.6094 5.81218 19.1878 0.390625 12.5 0.390625C5.81218 0.390625 0.390625 5.81218 0.390625 12.5C0.390625 19.1878 5.81218 24.6094 12.5 24.6094Z" fill="#8D8D8D"/>
<path d="M16.1719 13.5942C16.0156 13.5161 15.1953 13.0474 15.0391 13.0083C14.8828 12.9302 14.7656 12.9302 14.6484 13.0864C14.5313 13.2427 14.1797 13.6333 14.1016 13.7114C13.9844 13.8286 13.9063 13.8286 13.75 13.7505C13.5938 13.6724 13.0469 13.4771 12.4219 12.8521C11.9531 12.3833 11.6016 11.8364 11.5234 11.6411C11.4453 11.4849 11.5234 11.3677 11.6016 11.2895C11.6797 11.2114 11.7578 11.0942 11.875 11.0161C11.9922 10.938 11.9922 10.8599 12.0703 10.7427C12.1484 10.6255 12.1094 10.5474 12.0703 10.4302C12.0313 10.313 11.7188 9.49268 11.6016 9.14111C11.4844 8.78955 11.3281 8.86768 11.25 8.82861C11.1328 8.82861 11.0547 8.78955 10.9375 8.78955C10.7813 8.78955 10.5859 8.86768 10.4688 8.98486C10.3125 9.14111 9.84375 9.53174 9.84375 10.3521C9.84375 11.1724 10.3906 12.0317 10.4688 12.1099C10.5469 12.2271 11.5625 14.0239 13.2422 14.7661C14.9219 15.5083 14.9219 15.2739 15.2344 15.2739C15.5469 15.2739 16.25 14.8833 16.4063 14.5317C16.5625 14.1411 16.5625 13.7895 16.5234 13.7505C16.4453 13.7505 16.3281 13.7114 16.1719 13.5942ZM13.0469 17.6177C11.9531 17.6177 10.9375 17.3052 10.0391 16.7192L7.92969 17.3833L8.63281 15.352C7.96875 14.4145 7.57812 13.2817 7.57812 12.1099C7.57812 9.06299 10.0391 6.60205 13.0859 6.60205C16.1328 6.60205 18.5547 9.06299 18.5547 12.1099C18.5547 15.1567 16.0938 17.6177 13.0469 17.6177ZM13.0469 5.5083C9.41406 5.5083 6.44531 8.47705 6.44531 12.1099C6.44531 13.3208 6.75781 14.4927 7.38281 15.5083L6.17188 19.063L9.84375 17.8911C10.8203 18.438 11.9141 18.7114 13.0469 18.7114C16.6797 18.7114 19.6484 15.7427 19.6484 12.1099C19.6484 8.47705 16.7188 5.5083 13.0469 5.5083Z" fill="white"/>
</g>
<defs>
<clipPath id="clip0_70_591">
<rect width="25" height="25" fill="white"/>
</clipPath>
</defs>
</svg>
